<?xml version="1.0" standalone="no"?>
<!DOCTYPE svg PUBLIC "-//W3C//DTD SVG 20010904//EN"
 "http://www.w3.org/TR/2001/REC-SVG-20010904/DTD/svg10.dtd">
<svg version="1.0" xmlns="http://www.w3.org/2000/svg"
 width="300.000000pt" height="300.000000pt" viewBox="0 0 300.000000 300.000000"
 preserveAspectRatio="xMidYMid meet">
<metadata>
Created by potrace 1.11, written by Peter Selinger 2001-2013
</metadata>
<g transform="translate(0.000000,300.000000) scale(0.100000,-0.100000)"
fill="#000000" stroke="none">
<path d="M0 1500 l0 -1500 1500 0 1500 0 0 1500 0 1500 -1500 0 -1500 0 0
-1500z m1638 1193 l-3 -38 -135 0 -135 0 -3 38 -3 37 141 0 141 0 -3 -37z
m122 -308 l0 -35 -260 0 -260 0 0 35 0 35 260 0 260 0 0 -35z m120 -300 l0
-35 -380 0 -380 0 0 35 0 35 380 0 380 0 0 -35z m118 -282 l-3 -38 -495 0
-495 0 -3 38 -3 37 501 0 501 0 -3 -37z m120 -300 l-3 -38 -615 0 -615 0 -3
38 -3 37 621 0 621 0 -3 -37z m117 -303 l0 -35 -735 0 -735 0 -3 23 c-8 55
-53 52 740 50 l733 -3 0 -35z m123 -292 l3 -38 -860 0 -861 0 0 33 c0 19 3 37
7 40 3 4 389 6 857 5 l851 -3 3 -37z m-524 -334 c25 -9 19 -22 -11 -26 -35 -4
-44 -35 -12 -40 32 -4 37 -28 5 -28 -24 0 -25 -2 -28 -72 -2 -46 -7 -73 -15
-76 -10 -3 -13 16 -13 72 0 44 -4 76 -10 76 -5 0 -10 7 -10 15 0 8 4 15 9 15
5 0 11 10 13 22 2 12 14 28 28 35 30 15 25 14 44 7z m-830 -70 c9 -3 16 -12
16 -19 0 -10 -11 -12 -42 -8 -47 7 -68 -11 -68 -57 0 -51 35 -73 88 -56 16 5
22 3 22 -7 0 -36 -81 -37 -117 -1 -22 22 -25 32 -20 72 7 67 59 100 121 76z
m168 -11 c14 -13 18 -31 18 -90 0 -72 -5 -84 -27 -62 -8 8 -13 8 -17 0 -10
-16 -72 -13 -85 3 -7 8 -11 30 -9 48 3 34 11 39 81 53 45 9 26 30 -26 30 -43
0 -58 11 -40 28 13 14 87 7 105 -10z m102 8 c4 -5 18 -5 35 2 23 8 36 8 54 -2
18 -10 30 -10 45 -2 29 15 58 14 76 -5 22 -22 23 -164 1 -164 -12 0 -15 14
-15 70 0 77 -8 88 -55 76 -24 -6 -25 -10 -25 -76 0 -56 -3 -70 -15 -70 -12 0
-15 14 -15 70 0 77 -8 88 -55 76 -24 -6 -25 -10 -25 -76 0 -56 -3 -70 -15 -70
-12 0 -15 17 -15 90 0 81 8 107 24 81z m311 -1 c4 -6 15 -5 30 2 57 26 104
-25 92 -100 -8 -48 -41 -75 -84 -70 -31 4 -33 2 -33 -29 0 -23 -5 -33 -15 -33
-12 0 -15 20 -15 120 0 109 7 139 25 110z m309 1 c4 -5 18 -5 35 2 23 8 36 8
54 -2 18 -10 30 -10 45 -2 29 15 52 14 74 -6 24 -22 27 -163 3 -163 -12 0 -15
14 -15 70 0 77 -8 88 -55 76 -24 -6 -25 -10 -25 -76 0 -56 -3 -70 -15 -70 -12
0 -15 14 -15 70 0 77 -8 88 -55 76 -22 -6 -24 -12 -27 -73 -2 -42 -8 -68 -15
-71 -10 -3 -13 19 -13 87 0 82 8 108 24 82z"/>
<path d="M1093 413 c-7 -2 -13 -16 -13 -29 0 -23 3 -25 38 -22 32 3 37 7 40
31 3 24 0 27 -25 26 -15 0 -34 -3 -40 -6z"/>
<path d="M1603 473 c-8 -3 -13 -25 -13 -59 l0 -54 35 0 c39 0 55 20 55 67 0
45 -33 64 -77 46z"/>
</g>
</svg>
